<svg xmlns="http://www.w3.org/2000/svg" viewBox="0 0 512 512">
  <rect width="512" height="512" rx="104" fill="#070b14"/>
  <rect x="42" y="72" width="428" height="260" rx="24" fill="#57a9ff"/>
  <path d="M42 244h428v88H42z" fill="#29c743"/>
  <path d="M142 332h228l86 126H56z" fill="#777"/>
  <path d="M246 332h20l10 126h-40z" fill="#eee" opacity=".85"/>
  <path d="M64 346h384" stroke="#fff" stroke-width="12"/>
  <path d="M64 362h384" stroke="#d22" stroke-width="10" stroke-dasharray="36 24"/>
  <g transform="translate(256 360)">
    <rect x="-70" y="-30" width="140" height="72" rx="12" fill="#111"/>
    <rect x="-58" y="-42" width="116" height="54" rx="10" fill="#ff334b"/>
    <rect x="-34" y="-35" width="68" height="20" fill="#bff4ff"/>
    <rect x="-88" y="-18" width="30" height="62" fill="#050505"/>
    <rect x="58" y="-18" width="30" height="62" fill="#050505"/>
    <rect x="-56" y="24" width="28" height="10" fill="#ffd338"/>
    <rect x="28" y="24" width="28" height="10" fill="#ffd338"/>
  </g>
  <text x="256" y="126" text-anchor="middle" font-family="monospace" font-size="48" font-weight="900" fill="#fff">Q3</text>
  <text x="256" y="178" text-anchor="middle" font-family="monospace" font-size="42" font-weight="900" fill="#ffd338">RALLY</text>
</svg>
