<svg xmlns="http://www.w3.org/2000/svg" viewBox="0 0 512 512">
  <defs>
    <linearGradient id="g" x1="0" y1="0" x2="1" y2="1">
      <stop offset="0" stop-color="#00e6ff"/>
      <stop offset="0.45" stop-color="#5a3dff"/>
      <stop offset="1" stop-color="#ff2f3d"/>
    </linearGradient>
  </defs>
  <rect width="512" height="512" rx="112" fill="#050712"/>
  <rect x="38" y="38" width="436" height="436" rx="88" fill="url(#g)" opacity="0.22"/>
  <path d="M256 92 91 430h330L256 92Z" fill="#1b2135"/>
  <path d="M245 92h22l30 338h-82l30-338Z" fill="#eff7ff"/>
  <path d="M256 92 144 430h-53L256 92Zm0 0 165 338h-53L256 92Z" fill="#707b91"/>
  <g transform="translate(110 238)">
    <rect x="56" y="78" width="180" height="32" fill="#050712"/>
    <rect x="76" y="34" width="140" height="54" fill="#16d9ff"/>
    <rect x="102" y="10" width="88" height="38" fill="#16d9ff"/>
    <rect x="116" y="20" width="22" height="18" fill="#07111a"/>
    <rect x="154" y="20" width="22" height="18" fill="#07111a"/>
    <rect x="72" y="66" width="34" height="14" fill="#ff2f3d"/>
    <rect x="186" y="66" width="34" height="14" fill="#ffd33d"/>
    <rect x="74" y="98" width="38" height="24" fill="#050505"/>
    <rect x="180" y="98" width="38" height="24" fill="#050505"/>
  </g>
  <text x="256" y="102" text-anchor="middle" font-size="52" font-family="monospace" font-weight="900" fill="#ffd33d">RT</text>
</svg>
